<svg xmlns="http://www.w3.org/2000/svg" viewBox="0 0 87 33.47"><defs><style>.a{fill:#808080;}</style></defs><path class="a" d="M84.3,25.28a3.35,3.35,0,0,0-2.69,1.3,2.53,2.53,0,0,0-2.3-1.3,4,4,0,0,0-2.5,1,1.39,1.39,0,0,0-1.3-.9,1.7,1.7,0,0,0-.7.1,9,9,0,0,1,.2,2.3v5.39h2V27.68a2.83,2.83,0,0,1,1.7-.8c.9,0,1.3.7,1.3,1.6v4.69h2V27.68a2.79,2.79,0,0,1,1.69-.8c.9,0,1.3.7,1.3,1.6v4.69h2v-5C86.9,26.48,85.9,25.28,84.3,25.28Z" transform="translate(0 -0.01)"/><path class="a" d="M62.73,31.78a2.35,2.35,0,0,1-2.3-2.4,2.38,2.38,0,0,1,2.3-2.5c.7,0,.9.2,1.4.2s.7-.2.9-.7l.2-.4a4.52,4.52,0,0,0-2.8-.7,3.86,3.86,0,0,0-4,4.1,3.77,3.77,0,0,0,4,4,5.46,5.46,0,0,0,2.8-.79l-.7-1.3A3.74,3.74,0,0,1,62.73,31.78Z" transform="translate(0 -0.01)"/><path class="a" d="M41.15,25.28c-1.9,0-3.49,1.5-3.49,4.1s1.49,4,3.89,4a5,5,0,0,0,2.9-.89l-.2-.4a1.15,1.15,0,0,0-.9-.6c-.7,0-.7.3-1.6.3a2.08,2.08,0,0,1-2.1-1.9v-.1h5.1v-.6C44.65,26.88,43.25,25.28,41.15,25.28Zm-1.6,3.2a1.59,1.59,0,0,1,1.5-1.7,1.53,1.53,0,0,1,1.5,1.7Z" transform="translate(0 -0.01)"/><path class="a" d="M48,31.08v-8a1.47,1.47,0,0,0-1.39-1.6h-.5V32a1.4,1.4,0,0,0,1.6,1.49,1.59,1.59,0,0,0,1.69-1.79,1.27,1.27,0,0,1-.6.1c-.4,0-.7-.2-.7-.6A.1.1,0,0,1,48,31.08Z" transform="translate(0 -0.01)"/><path class="a" d="M34.86,30.78V27h1.7l.6-1.5H35V23.19h-.2c-.9,0-1.8.4-1.8,2.29h-1.5V27H33v4.5a1.7,1.7,0,0,0,1.8,1.89,1.77,1.77,0,0,0,2-2,1.69,1.69,0,0,1-1,.3C35.06,31.78,34.86,31.38,34.86,30.78Z" transform="translate(0 -0.01)"/><path class="a" d="M53.44,25.28c-1.9,0-3.5,1.5-3.5,4.1s1.5,4,3.9,4a5,5,0,0,0,2.89-.89l-.19-.4a1.15,1.15,0,0,0-.9-.6c-.7,0-.7.3-1.6.3a2.08,2.08,0,0,1-2.1-1.9v-.1H57v-.6C57,26.88,55.64,25.28,53.44,25.28Zm-1.5,3.2a1.59,1.59,0,0,1,1.5-1.7,1.53,1.53,0,0,1,1.5,1.7Z" transform="translate(0 -0.01)"/><path class="a" d="M69.72,33.37a3.69,3.69,0,0,1-3.9-4,3.65,3.65,0,0,1,3.9-4,3.7,3.7,0,0,1,3.9,4A3.64,3.64,0,0,1,69.72,33.37Zm0-1.49c1.2,0,1.9-1,1.9-2.5s-.7-2.5-1.9-2.5-1.9,1-1.9,2.5S68.52,31.88,69.72,31.88Z" transform="translate(0 -0.01)"/><path class="a" d="M6.29,24.58c-1.2-.59-2.19-1-2.19-1.89,0-.7.59-1.2,1.69-1.2a4.1,4.1,0,0,1,1.1.1c.2,0,.3.1.5.1,1,0,1.5-.6,1.9-1.7l.1-.4a9.86,9.86,0,0,0-3.8-.7c-3.29,0-5,2.1-5,4.3a3.81,3.81,0,0,0,.9,2.49,9.31,9.31,0,0,0,2.6,1.8c1.29.7,2.59,1.1,2.59,2.1S5.79,31,4.59,31A7.36,7.36,0,0,1,1.3,30L0,32.28a9.1,9.1,0,0,0,4.79,1.19c3,0,5.3-1.69,5.3-4.39S8,25.48,6.29,24.58Z" transform="translate(0 -0.01)"/><path class="a" d="M18.18,25.88l5.49-6.79H19.78l-4.4,5.79h-.1V19.09H12.09V33.37h.2a2.77,2.77,0,0,0,3.09-3v-3.3h.1L20,33.17h4.09Z" transform="translate(0 -0.01)"/><path class="a" d="M23.87,3.81A3.31,3.31,0,0,0,21.08,6.9c0,1.7,1.39,2.7,1.39,4.8A3.75,3.75,0,0,1,20.58,15c.4,0,.8-.1,1.29-.1a8.6,8.6,0,0,1,1.6.1l5.1-6.3A24.17,24.17,0,0,0,23.87,3.81Z" transform="translate(0 -0.01)"/><path class="a" d="M28.17,20.69a10.14,10.14,0,0,0,.8-4.2c.1-1.49.4-2.69,2.39-2.69.4,0,.9.1,1.7.1a11.61,11.61,0,0,0,6.09-1.7A22,22,0,0,0,28.67,8.8c-.3.8-2.6,7.09-2.7,7.59a5.08,5.08,0,0,1,.9,1.3C27.37,18.69,27.77,19.69,28.17,20.69Z" transform="translate(0 -0.01)"/><path class="a" d="M17.38,15.59c-.3,0-.4-.19-.4-.49s-1.3-12-1.5-13.79c0-.3-.1-.7-.1-.9s.1-.4.3-.4h0a18.44,18.44,0,0,1,7.39,3.2,3.71,3.71,0,0,0-2.79,3.5c0,1.89,1.4,3,1.4,4.89C21.68,14.8,18.08,15.59,17.38,15.59Z" transform="translate(0 -0.01)"/><path class="a" d="M28.47,21.59c0,.1.1.2.2.4s.2.2.3.2a.37.37,0,0,0,.3-.1c.3-.1,10.88-5.1,12.58-5.8a5.94,5.94,0,0,0,.8-.4c.1-.1.2-.2.2-.3s0-.1-.1-.19a12.72,12.72,0,0,0-3-2.6,12.66,12.66,0,0,1-6.69,1.9,7.35,7.35,0,0,0-1.5,0c-1.49,0-1.89.7-2,2v1A7.48,7.48,0,0,1,28.47,21.59Z" transform="translate(0 -0.01)"/></svg>