<svg id="logo" xmlns="http://www.w3.org/2000/svg" width="136" height="28" viewBox="0 0 136 28">
  <g id="그룹_15" data-name="그룹 15">
    <g id="그룹_14" data-name="그룹 14">
      <path id="패스_2" data-name="패스 2" d="M122.836,119.107a6.276,6.276,0,0,0-4.566,1.753v-1.393a6.3,6.3,0,0,0-10.638-4.41A6.3,6.3,0,0,0,97,119.109l-.019,8.332a3.007,3.007,0,0,1-6.012,0v-8.807a5.28,5.28,0,1,0-10.561,0l0,4.644h0l-.014,8.787a3.179,3.179,0,0,1-5.773,1.778,4.79,4.79,0,0,1-.567-2.4v-1.163H70.141V132.5a6.829,6.829,0,0,0,7.092,6.585,7.073,7.073,0,0,0,7.11-7.02v-5.487h0V118.63a1.45,1.45,0,0,1,2.9.005V127.5h.018a6.736,6.736,0,0,0,13.47-.062l0-8.168a2.462,2.462,0,0,1,4.924,0l.015,8.983H109.6v-8.97a2.462,2.462,0,0,1,4.924,0v22.03h3.746v-8.645a6.325,6.325,0,0,0,4.566,1.737,7.429,7.429,0,0,0,7.358-7.651A7.517,7.517,0,0,0,122.836,119.107Zm-.478,11.742a4.091,4.091,0,1,1,4.088-4.091A3.956,3.956,0,0,1,122.358,130.849Z" transform="translate(-70.141 -113.316)" fill="#fff"/>
    </g>
  </g>
  <g id="그룹_16" data-name="그룹 16" transform="translate(65.483)">
    <path id="패스_3" data-name="패스 3" d="M550.328,151.23a6.588,6.588,0,0,0,4.325,1.431v-2.9c-1.218-.011-2.711-.491-2.711-1.947v-7.477h2.711v-2.633h-2.711v-2.976h-3.026v2.976h-2.564v2.633h2.564v7.253A4.728,4.728,0,0,0,550.328,151.23Z" transform="translate(-533.727 -131.233)" fill="#fff"/>
    <path id="패스_4" data-name="패스 4" d="M622.164,131.8c-3.067,0-5.305,1.659-5.305,4.787l-.017,7.077a2.619,2.619,0,0,1-2.665,2.578,2.675,2.675,0,0,1-2.722-2.578v-8.428h-3.112v8.428h0a5.633,5.633,0,0,0,1.764,4.079A5.989,5.989,0,0,0,614.2,149.4a5.754,5.754,0,0,0,5.813-5.731l0-7.077a1.977,1.977,0,0,1,2.16-2Z" transform="translate(-585.591 -128.783)" fill="#fff"/>
    <path id="패스_5" data-name="패스 5" d="M788.958,129.528a1.767,1.767,0,0,0-1.766,1.765,1.765,1.765,0,1,0,3.531,0A1.767,1.767,0,0,0,788.958,129.528Z" transform="translate(-735.224 -126.88)" fill="#fff"/>
    <rect id="사각형_7" data-name="사각형 7" width="3.069" height="11.366" transform="translate(52.199 7.605)" fill="#fff"/>
    <path id="패스_6" data-name="패스 6" d="M825.665,153.433a6.666,6.666,0,0,0-4.724,11.381,6.665,6.665,0,0,0,4.724,1.922,6.652,6.652,0,1,0,0-13.3Zm0,10.692a4.04,4.04,0,1,1,3.989-4.04A3.927,3.927,0,0,1,825.665,164.125Z" transform="translate(-761.825 -147.095)" fill="#fff"/>
    <path id="패스_7" data-name="패스 7" d="M708.838,137.38v-2.666c-1.207-.039-2.344-.458-2.344-1.794v-19.6h-3.006v7.943l-.047-.046a5.563,5.563,0,0,0-3.989-1.514c-3.607,0-6.15,2.932-6.15,6.675,0,3.68,2.541,6.675,6.15,6.675a5.517,5.517,0,0,0,3.989-1.528l.1-.047v1.286C703.541,136.157,706.13,137.38,708.838,137.38Zm-8.966-7.394a3.611,3.611,0,1,1,3.616-3.611A3.5,3.5,0,0,1,699.872,129.985Z" transform="translate(-656.672 -113.316)" fill="#fff"/>
    <path id="패스_8" data-name="패스 8" d="M475.419,149.082c-2.449-.568-2.844-.993-2.844-1.79,0-.938.8-1.476,2.2-1.476a2.385,2.385,0,0,1,2.591,1.9h2.872a4.461,4.461,0,0,0-1.4-2.893,6.015,6.015,0,0,0-4.062-1.283,5.675,5.675,0,0,0-4.022,1.3,3.623,3.623,0,0,0-1.133,2.665c0,1.873.807,3.149,4.93,4.129,2.534.6,2.963,1.033,2.963,2.027,0,1.162-.907,1.829-2.488,1.829a2.728,2.728,0,0,1-2.983-2.056l-.034-.126h-2.938l.027.192a4.811,4.811,0,0,0,1.328,2.751,6.29,6.29,0,0,0,4.6,1.548c3.411,0,5.53-1.586,5.53-4.138C480.556,151.622,479.683,150.063,475.419,149.082Z" transform="translate(-469.071 -138.604)" fill="#fff"/>
    <path id="패스_9" data-name="패스 9" d="M708.838,137.38v-2.666c-1.207-.039-2.344-.458-2.344-1.794v-19.6h-3.006v7.943l-.047-.046a5.563,5.563,0,0,0-3.989-1.514c-3.607,0-6.15,2.932-6.15,6.675,0,3.68,2.541,6.675,6.15,6.675a5.517,5.517,0,0,0,3.989-1.528l.1-.047v1.546C703.541,135.938,706.13,137.38,708.838,137.38Zm-8.966-7.394a3.611,3.611,0,1,1,3.616-3.611A3.5,3.5,0,0,1,699.872,129.985Z" transform="translate(-656.672 -113.316)" fill="#fff"/>
    <path id="패스_10" data-name="패스 10" d="M708.838,137.38v-2.666c-1.207-.039-2.344-.458-2.344-1.794v-19.6h-3.006v7.943l-.047-.046a5.563,5.563,0,0,0-3.989-1.514c-3.607,0-6.15,2.932-6.15,6.675,0,3.68,2.541,6.675,6.15,6.675a5.517,5.517,0,0,0,3.989-1.528l.1-.047v1.546C703.541,135.938,706.13,137.38,708.838,137.38Zm-8.966-7.394a3.611,3.611,0,1,1,3.616-3.611A3.5,3.5,0,0,1,699.872,129.985Z" transform="translate(-656.672 -113.316)" fill="#fff"/>
  </g>
</svg>
